<mxfile host="app.diagrams.net" modified="2023-11-25T23:38:00.628Z" agent="Mozilla/5.0 (Windows NT 10.0; Win64; x64) AppleWebKit/537.36 (KHTML, like Gecko) Chrome/114.0.0.0 Safari/537.36" version="22.1.4" etag="o2DtcJcXMWRrE5t94EB6" type="github">
  <diagram name="ページ1" id="EhaOKy-LYmtzxvtVXIhh">
    <mxGraphModel>
      <root>
        <mxCell id="0" />
        <mxCell id="1" parent="0" />
      </root>
    </mxGraphModel>
  </diagram>
</mxfile>
